<?xml version="1.0" encoding="UTF-8"?>
<svg id="Layer_1" data-name="Layer 1" xmlns="http://www.w3.org/2000/svg" version="1.1" width="64" height="64" viewBox="0 0 48 48">
  <defs>
    <style>
      .cls-1 {
        fill: #000;
        stroke-width: 0px;
      }
    </style>
  </defs>
  <path class="cls-1" d="M35.8,13.6c-6.2,0-10.2,4-10.5,10.5h-2.5c-.4-6.2-4.4-10.5-10.5-10.5S1.7,18,1.7,25.2s4,11.6,10.5,11.6,10.2-4,10.5-10.5h2.5c.4,6.2,4.4,10.5,10.5,10.5s10.5-4.4,10.5-11.6-4-11.6-10.5-11.6ZM12.2,34.3c-4.4,0-7.6-3.6-7.6-9.1s2.9-9.1,7.6-9.1,7.6,3.6,7.6,9.1-2.9,9.1-7.6,9.1ZM35.8,34.3c-4.4,0-7.6-3.6-7.6-9.1s2.9-9.1,7.6-9.1,7.6,3.6,7.6,9.1-2.9,9.1-7.6,9.1Z"/>
</svg>