<svg width="1416" height="413" viewBox="0 0 1416 413" fill="none" xmlns="http://www.w3.org/2000/svg">
<g clip-path="url(#clip0_318_150)">
<path d="M0 206.776C0 81.4248 73.9639 0.545593 188.38 0.545593C302.795 0.545593 376.177 81.4174 376.177 206.776C376.177 332.136 302.213 413 188.38 413C74.5465 413 0 332.128 0 206.776ZM188.38 369.103C269.276 369.103 323.018 304.982 323.018 206.776C323.018 108.571 269.276 44.4504 188.38 44.4504C107.483 44.4504 53.1664 108.571 53.1664 206.776C53.1664 304.982 107.483 369.103 188.38 369.103Z" fill="black"/>
<path d="M421.88 206.776C421.88 81.4248 495.843 0.545593 610.259 0.545593C724.675 0.545593 798.056 81.4174 798.056 206.776C798.056 332.136 724.092 413 610.259 413C496.426 413 421.88 332.128 421.88 206.776ZM610.259 369.103C691.156 369.103 744.897 304.982 744.897 206.776C744.897 108.571 691.156 44.4504 610.259 44.4504C529.363 44.4504 475.046 108.571 475.046 206.776C475.046 304.982 529.363 369.103 610.259 369.103Z" fill="black"/>
<path d="M830.403 0.737305H957.253C1050.63 0.737305 1108.76 50.6362 1108.76 129.893C1108.76 209.151 1052.39 260.222 961.368 260.222H882.677V411.688H830.41V0.737305H830.403ZM954.9 217.961C1016.56 217.961 1055.32 184.496 1055.32 130.491C1055.32 76.4851 1016.56 43.0201 954.9 43.0201H882.669V217.968H954.9V217.961Z" fill="black"/>
<path d="M1117.25 293.458L1165.21 281.33C1176.77 334.473 1219.53 370.29 1278.47 370.29C1327.01 370.29 1365.72 346.608 1365.72 300.388C1365.72 258.216 1336.25 245.513 1294.65 231.07L1231.67 210.271C1171 190.055 1132.28 166.366 1132.28 106.868C1132.28 47.37 1184.28 0 1265.76 0C1347.24 0 1395.78 45.6374 1413.12 98.7803L1364 109.758C1351.87 75.099 1320.66 41.5971 1262.87 41.5971C1215.49 41.5971 1182.55 64.7034 1182.55 102.828C1182.55 140.952 1208.56 153.088 1250.73 166.949L1315.45 188.898C1371.5 207.963 1415.99 232.22 1415.99 297.498C1415.99 362.777 1365.72 411.879 1277.89 411.879C1195.83 411.879 1131.12 363.934 1117.25 293.458H1117.25Z" fill="black"/>
<path d="M440.287 185.971H356.05V227.575H440.287V185.971Z" fill="black"/>
<rect width="431" height="142" transform="translate(200 36)" fill="white" fill-opacity="0.01"/>
<rect width="363" height="62" transform="translate(240 76)" fill="#FFFF00" fill-opacity="0.01"/>
<path d="M262.601 132.936C259.689 132.936 257.257 132.264 255.305 130.92C253.385 129.608 252.121 127.768 251.513 125.4L255.209 124.488C256.265 127.912 258.713 129.624 262.553 129.624C264.537 129.624 266.121 129 267.305 127.752C268.521 126.504 269.129 124.712 269.129 122.376V117.816C268.329 119.544 267.193 120.904 265.721 121.896C264.249 122.856 262.521 123.336 260.537 123.336C258.585 123.336 256.825 122.824 255.257 121.8C253.721 120.776 252.521 119.336 251.657 117.48C250.793 115.592 250.361 113.384 250.361 110.856C250.361 108.36 250.809 106.184 251.705 104.328C252.633 102.44 253.865 101 255.401 100.008C256.937 98.984 258.633 98.472 260.489 98.472C262.441 98.472 264.153 98.968 265.625 99.96C267.129 100.92 268.297 102.28 269.129 104.04V98.808H273.257V122.088C273.257 125.608 272.297 128.296 270.377 130.152C268.489 132.008 265.897 132.936 262.601 132.936ZM254.633 110.856C254.633 113.672 255.273 115.912 256.553 117.576C257.833 119.24 259.529 120.072 261.641 120.072C263.081 120.072 264.361 119.688 265.481 118.92C266.633 118.152 267.513 117.08 268.121 115.704C268.761 114.328 269.081 112.76 269.081 111C269.081 109.24 268.745 107.656 268.073 106.248C267.433 104.84 266.553 103.736 265.433 102.936C264.313 102.136 263.081 101.736 261.737 101.736C259.625 101.736 257.913 102.568 256.601 104.232C255.289 105.864 254.633 108.072 254.633 110.856ZM279.416 98.808H283.544V105.336C284.312 103.224 285.368 101.56 286.712 100.344C288.088 99.096 289.736 98.472 291.656 98.472H291.752V102.744C289.16 102.744 287.144 103.528 285.704 105.096C284.264 106.632 283.544 108.968 283.544 112.104V123H279.416V98.808ZM309.051 106.92C309.051 105.288 308.603 104.024 307.707 103.128C306.811 102.232 305.483 101.784 303.723 101.784C302.123 101.784 300.779 102.168 299.691 102.936C298.603 103.704 297.803 104.792 297.291 106.2L293.547 105.24C294.187 103.256 295.419 101.64 297.243 100.392C299.067 99.112 301.307 98.472 303.963 98.472C306.907 98.472 309.179 99.208 310.779 100.68C312.379 102.152 313.179 104.248 313.179 106.968V123H309.051V118.44C308.155 119.976 306.907 121.176 305.307 122.04C303.707 122.904 301.995 123.336 300.171 123.336C298.027 123.336 296.235 122.776 294.795 121.656C293.387 120.536 292.683 118.984 292.683 117C292.683 114.632 293.531 112.888 295.227 111.768C296.955 110.648 299.403 109.96 302.571 109.704C304.715 109.512 306.283 109.272 307.275 108.984C308.299 108.664 308.891 108.136 309.051 107.4V106.92ZM297.051 116.472C297.051 117.752 297.499 118.712 298.395 119.352C299.323 119.992 300.459 120.312 301.803 120.312C303.627 120.312 305.243 119.704 306.651 118.488C308.059 117.24 308.859 115.528 309.051 113.352V110.424C308.059 111.544 306.267 112.232 303.675 112.488C301.371 112.68 299.691 113.048 298.635 113.592C297.579 114.104 297.051 115.064 297.051 116.472ZM318.838 98.808H322.918V103.896C323.718 102.2 324.838 100.872 326.278 99.912C327.75 98.952 329.478 98.472 331.462 98.472C333.414 98.472 335.158 98.984 336.694 100.008C338.262 101.032 339.478 102.488 340.342 104.376C341.206 106.232 341.638 108.424 341.638 110.952C341.638 113.448 341.174 115.64 340.246 117.528C339.35 119.384 338.134 120.824 336.598 121.848C335.062 122.84 333.366 123.336 331.51 123.336C329.59 123.336 327.878 122.872 326.374 121.944C324.902 120.984 323.75 119.624 322.918 117.864V132.6H318.838V98.808ZM322.918 110.808C322.918 112.568 323.238 114.152 323.878 115.56C324.55 116.968 325.446 118.072 326.566 118.872C327.686 119.672 328.918 120.072 330.262 120.072C332.374 120.072 334.086 119.256 335.398 117.624C336.71 115.96 337.366 113.736 337.366 110.952C337.366 108.136 336.726 105.896 335.446 104.232C334.166 102.568 332.47 101.736 330.358 101.736C328.918 101.736 327.622 102.12 326.47 102.888C325.35 103.656 324.47 104.728 323.83 106.104C323.222 107.48 322.918 109.048 322.918 110.808ZM345.978 89.4H350.106V104.232C351.098 102.504 352.378 101.112 353.946 100.056C355.514 99 357.274 98.472 359.226 98.472C361.402 98.472 363.05 99.192 364.17 100.632C365.322 102.04 365.898 104.136 365.898 106.92V123H361.818V107.448C361.818 105.432 361.434 104.008 360.666 103.176C359.93 102.312 358.842 101.88 357.402 101.88C355.642 101.88 354.09 102.6 352.746 104.04C351.402 105.448 350.522 107.16 350.106 109.176V123H345.978V89.4ZM371.9 98.808H375.98V123H371.9V98.808ZM371.804 90.6H376.124V95.448H371.804V90.6ZM392.2 123.336C390.024 123.336 388.024 122.84 386.2 121.848C384.376 120.824 382.936 119.368 381.88 117.48C380.824 115.592 380.296 113.4 380.296 110.904C380.296 108.376 380.808 106.184 381.832 104.328C382.856 102.44 384.248 101 386.008 100.008C387.8 98.984 389.816 98.472 392.056 98.472C394.712 98.472 396.968 99.192 398.824 100.632C400.712 102.072 401.944 103.944 402.52 106.248L398.488 107.256C398.072 105.528 397.288 104.184 396.136 103.224C395.016 102.264 393.608 101.784 391.912 101.784C390.504 101.784 389.24 102.168 388.12 102.936C387.032 103.672 386.168 104.728 385.528 106.104C384.92 107.448 384.616 109.016 384.616 110.808C384.616 112.728 384.952 114.392 385.624 115.8C386.328 117.176 387.256 118.232 388.408 118.968C389.592 119.672 390.904 120.024 392.344 120.024C393.944 120.024 395.304 119.528 396.424 118.536C397.576 117.544 398.408 116.2 398.92 114.504L402.76 115.464C402.088 117.768 400.84 119.656 399.016 121.128C397.192 122.6 394.92 123.336 392.2 123.336ZM436.002 117.816C435.202 119.544 434.066 120.904 432.594 121.896C431.122 122.856 429.394 123.336 427.41 123.336C425.458 123.336 423.698 122.824 422.13 121.8C420.594 120.776 419.394 119.336 418.53 117.48C417.666 115.592 417.234 113.384 417.234 110.856C417.234 108.36 417.682 106.184 418.578 104.328C419.506 102.44 420.738 101 422.273 100.008C423.81 98.984 425.506 98.472 427.362 98.472C429.314 98.472 431.026 98.968 432.498 99.96C434.002 100.92 435.17 102.28 436.002 104.04V89.4H440.13V123H436.002V117.816ZM421.506 110.856C421.506 113.672 422.146 115.912 423.426 117.576C424.706 119.24 426.402 120.072 428.514 120.072C429.954 120.072 431.234 119.688 432.354 118.92C433.506 118.152 434.386 117.08 434.994 115.704C435.634 114.328 435.954 112.76 435.954 111C435.954 109.24 435.618 107.656 434.946 106.248C434.306 104.84 433.426 103.736 432.306 102.936C431.186 102.136 429.954 101.736 428.609 101.736C426.498 101.736 424.786 102.568 423.474 104.232C422.162 105.864 421.506 108.072 421.506 110.856ZM456.181 123.336C453.877 123.336 451.829 122.84 450.037 121.848C448.277 120.824 446.901 119.368 445.909 117.48C444.917 115.592 444.421 113.4 444.421 110.904C444.421 108.6 444.885 106.504 445.813 104.616C446.773 102.728 448.133 101.24 449.893 100.152C451.653 99.032 453.701 98.472 456.037 98.472C458.181 98.472 460.053 98.952 461.653 99.912C463.285 100.872 464.549 102.2 465.445 103.896C466.341 105.56 466.789 107.432 466.789 109.512C466.789 110.152 466.741 110.76 466.645 111.336H448.645C448.741 114.12 449.493 116.28 450.901 117.816C452.341 119.352 454.149 120.12 456.325 120.12C459.493 120.12 461.733 118.424 463.045 115.032L466.789 115.944C466.117 118.056 464.869 119.816 463.045 121.224C461.253 122.632 458.965 123.336 456.181 123.336ZM462.613 108.264C462.453 106.344 461.765 104.776 460.549 103.56C459.365 102.312 457.829 101.688 455.941 101.688C454.085 101.688 452.533 102.28 451.285 103.464C450.037 104.648 449.237 106.248 448.885 108.264H462.613ZM479.961 123.336C477.017 123.336 474.649 122.664 472.857 121.32C471.065 119.976 469.865 118.248 469.257 116.136L473.049 115.176C474.137 118.536 476.473 120.216 480.057 120.216C481.721 120.216 483.017 119.864 483.945 119.16C484.873 118.456 485.337 117.496 485.337 116.28C485.337 115.256 484.969 114.456 484.233 113.88C483.497 113.304 482.377 112.824 480.873 112.44L476.985 111.48C474.681 110.936 472.953 110.216 471.801 109.32C470.681 108.392 470.121 107.048 470.121 105.288C470.121 103.24 470.921 101.592 472.521 100.344C474.121 99.096 476.233 98.472 478.857 98.472C481.513 98.472 483.689 99.048 485.385 100.2C487.081 101.352 488.249 102.904 488.889 104.856L485.049 105.768C484.601 104.488 483.849 103.48 482.793 102.744C481.769 101.976 480.425 101.592 478.761 101.592C477.289 101.592 476.105 101.912 475.209 102.552C474.313 103.16 473.865 104.008 473.865 105.096C473.865 106.056 474.201 106.792 474.873 107.304C475.545 107.816 476.521 108.216 477.801 108.504L482.217 109.56C484.521 110.072 486.233 110.856 487.353 111.912C488.505 112.936 489.081 114.328 489.081 116.088C489.081 118.264 488.281 120.024 486.681 121.368C485.081 122.68 482.841 123.336 479.961 123.336ZM493.353 98.808H497.433V123H493.353V98.808ZM493.257 90.6H497.577V95.448H493.257V90.6ZM514.085 132.936C511.173 132.936 508.741 132.264 506.789 130.92C504.869 129.608 503.605 127.768 502.997 125.4L506.693 124.488C507.749 127.912 510.197 129.624 514.037 129.624C516.021 129.624 517.605 129 518.789 127.752C520.005 126.504 520.613 124.712 520.613 122.376V117.816C519.813 119.544 518.677 120.904 517.205 121.896C515.733 122.856 514.005 123.336 512.021 123.336C510.069 123.336 508.309 122.824 506.741 121.8C505.205 120.776 504.005 119.336 503.141 117.48C502.277 115.592 501.845 113.384 501.845 110.856C501.845 108.36 502.293 106.184 503.189 104.328C504.117 102.44 505.349 101 506.885 100.008C508.421 98.984 510.117 98.472 511.973 98.472C513.925 98.472 515.637 98.968 517.109 99.96C518.613 100.92 519.781 102.28 520.613 104.04V98.808H524.741V122.088C524.741 125.608 523.781 128.296 521.861 130.152C519.973 132.008 517.381 132.936 514.085 132.936ZM506.117 110.856C506.117 113.672 506.757 115.912 508.037 117.576C509.317 119.24 511.013 120.072 513.125 120.072C514.565 120.072 515.845 119.688 516.965 118.92C518.117 118.152 518.997 117.08 519.605 115.704C520.245 114.328 520.565 112.76 520.565 111C520.565 109.24 520.229 107.656 519.557 106.248C518.917 104.84 518.037 103.736 516.917 102.936C515.797 102.136 514.565 101.736 513.221 101.736C511.109 101.736 509.397 102.568 508.085 104.232C506.773 105.864 506.117 108.072 506.117 110.856ZM530.9 98.808H534.98V104.232C535.972 102.504 537.252 101.112 538.82 100.056C540.388 99 542.148 98.472 544.1 98.472C546.276 98.472 547.924 99.192 549.044 100.632C550.196 102.04 550.772 104.136 550.772 106.92V123H546.692V107.448C546.692 105.432 546.308 104.008 545.54 103.176C544.804 102.312 543.716 101.88 542.276 101.88C540.516 101.88 538.964 102.6 537.62 104.04C536.276 105.448 535.396 107.16 534.98 109.176V123H530.9V98.808ZM566.806 123.336C564.502 123.336 562.454 122.84 560.662 121.848C558.902 120.824 557.526 119.368 556.534 117.48C555.542 115.592 555.046 113.4 555.046 110.904C555.046 108.6 555.51 106.504 556.438 104.616C557.398 102.728 558.758 101.24 560.518 100.152C562.278 99.032 564.326 98.472 566.662 98.472C568.806 98.472 570.678 98.952 572.278 99.912C573.91 100.872 575.174 102.2 576.07 103.896C576.966 105.56 577.414 107.432 577.414 109.512C577.414 110.152 577.366 110.76 577.27 111.336H559.27C559.366 114.12 560.118 116.28 561.526 117.816C562.966 119.352 564.774 120.12 566.95 120.12C570.118 120.12 572.358 118.424 573.67 115.032L577.414 115.944C576.742 118.056 575.494 119.816 573.67 121.224C571.878 122.632 569.59 123.336 566.806 123.336ZM573.238 108.264C573.078 106.344 572.39 104.776 571.174 103.56C569.99 102.312 568.454 101.688 566.566 101.688C564.71 101.688 563.158 102.28 561.91 103.464C560.662 104.648 559.862 106.248 559.51 108.264H573.238ZM581.947 98.808H586.075V105.336C586.843 103.224 587.899 101.56 589.243 100.344C590.619 99.096 592.267 98.472 594.187 98.472H594.283V102.744C591.691 102.744 589.675 103.528 588.235 105.096C586.795 106.632 586.075 108.968 586.075 112.104V123H581.947V98.808Z" fill="black" fill-opacity="0.01"/>
<rect width="267" height="131" transform="translate(176 245)" fill="white" fill-opacity="0.01"/>
<rect width="200" height="62" transform="translate(216 285)" fill="#FFFF00" fill-opacity="0.01"/>
<path d="M227.51 298.4H231.638V312.896C232.438 311.2 233.558 309.872 234.998 308.912C236.47 307.952 238.198 307.472 240.182 307.472C242.134 307.472 243.878 307.984 245.414 309.008C246.982 310.032 248.198 311.488 249.062 313.376C249.926 315.232 250.358 317.424 250.358 319.952C250.358 322.448 249.894 324.64 248.966 326.528C248.07 328.384 246.854 329.824 245.318 330.848C243.782 331.84 242.086 332.336 240.23 332.336C238.31 332.336 236.598 331.872 235.094 330.944C233.622 329.984 232.47 328.624 231.638 326.864V332H227.51V298.4ZM231.638 319.808C231.638 321.568 231.958 323.152 232.598 324.56C233.27 325.968 234.166 327.072 235.286 327.872C236.406 328.672 237.638 329.072 238.982 329.072C241.094 329.072 242.806 328.256 244.118 326.624C245.43 324.96 246.086 322.736 246.086 319.952C246.086 317.136 245.446 314.896 244.166 313.232C242.886 311.568 241.19 310.736 239.078 310.736C237.638 310.736 236.342 311.12 235.19 311.888C234.07 312.656 233.19 313.728 232.55 315.104C231.942 316.48 231.638 318.048 231.638 319.808ZM254.697 307.808H258.825V314.336C259.593 312.224 260.649 310.56 261.993 309.344C263.369 308.096 265.017 307.472 266.937 307.472H267.033V311.744C264.441 311.744 262.425 312.528 260.985 314.096C259.545 315.632 258.825 317.968 258.825 321.104V332H254.697V307.808ZM284.333 315.92C284.333 314.288 283.885 313.024 282.989 312.128C282.093 311.232 280.765 310.784 279.005 310.784C277.405 310.784 276.061 311.168 274.973 311.936C273.885 312.704 273.085 313.792 272.573 315.2L268.829 314.24C269.469 312.256 270.701 310.64 272.525 309.392C274.349 308.112 276.589 307.472 279.245 307.472C282.189 307.472 284.461 308.208 286.061 309.68C287.661 311.152 288.461 313.248 288.461 315.968V332H284.333V327.44C283.437 328.976 282.189 330.176 280.589 331.04C278.989 331.904 277.277 332.336 275.453 332.336C273.309 332.336 271.517 331.776 270.077 330.656C268.669 329.536 267.965 327.984 267.965 326C267.965 323.632 268.813 321.888 270.509 320.768C272.237 319.648 274.685 318.96 277.853 318.704C279.997 318.512 281.565 318.272 282.557 317.984C283.581 317.664 284.173 317.136 284.333 316.4V315.92ZM272.333 325.472C272.333 326.752 272.781 327.712 273.677 328.352C274.605 328.992 275.741 329.312 277.085 329.312C278.909 329.312 280.525 328.704 281.933 327.488C283.341 326.24 284.141 324.528 284.333 322.352V319.424C283.341 320.544 281.549 321.232 278.957 321.488C276.653 321.68 274.973 322.048 273.917 322.592C272.861 323.104 272.333 324.064 272.333 325.472ZM294.119 307.808H298.199V313.232C299.191 311.504 300.471 310.112 302.039 309.056C303.607 308 305.367 307.472 307.319 307.472C309.495 307.472 311.143 308.192 312.263 309.632C313.415 311.04 313.991 313.136 313.991 315.92V332H309.911V316.448C309.911 314.432 309.527 313.008 308.759 312.176C308.023 311.312 306.935 310.88 305.495 310.88C303.735 310.88 302.183 311.6 300.839 313.04C299.495 314.448 298.615 316.16 298.199 318.176V332H294.119V307.808ZM337.08 326.816C336.28 328.544 335.144 329.904 333.672 330.896C332.2 331.856 330.472 332.336 328.488 332.336C326.536 332.336 324.776 331.824 323.208 330.8C321.672 329.776 320.472 328.336 319.608 326.48C318.744 324.592 318.312 322.384 318.312 319.856C318.312 317.36 318.76 315.184 319.656 313.328C320.584 311.44 321.816 310 323.352 309.008C324.888 307.984 326.584 307.472 328.44 307.472C330.392 307.472 332.104 307.968 333.576 308.96C335.08 309.92 336.248 311.28 337.08 313.04V298.4H341.208V332H337.08V326.816ZM322.584 319.856C322.584 322.672 323.224 324.912 324.504 326.576C325.784 328.24 327.48 329.072 329.592 329.072C331.032 329.072 332.312 328.688 333.432 327.92C334.584 327.152 335.464 326.08 336.072 324.704C336.712 323.328 337.032 321.76 337.032 320C337.032 318.24 336.696 316.656 336.024 315.248C335.384 313.84 334.504 312.736 333.384 311.936C332.264 311.136 331.032 310.736 329.688 310.736C327.576 310.736 325.864 311.568 324.552 313.232C323.24 314.864 322.584 317.072 322.584 319.856ZM347.369 307.808H351.449V332H347.369V307.808ZM347.273 299.6H351.593V304.448H347.273V299.6ZM357.588 307.808H361.668V313.232C362.66 311.504 363.94 310.112 365.508 309.056C367.076 308 368.836 307.472 370.788 307.472C372.964 307.472 374.612 308.192 375.732 309.632C376.884 311.04 377.46 313.136 377.46 315.92V332H373.38V316.448C373.38 314.432 372.996 313.008 372.228 312.176C371.492 311.312 370.404 310.88 368.964 310.88C367.204 310.88 365.652 311.6 364.308 313.04C362.964 314.448 362.084 316.16 361.668 318.176V332H357.588V307.808ZM394.257 341.936C391.345 341.936 388.913 341.264 386.961 339.92C385.041 338.608 383.777 336.768 383.169 334.4L386.865 333.488C387.921 336.912 390.369 338.624 394.209 338.624C396.193 338.624 397.777 338 398.961 336.752C400.177 335.504 400.785 333.712 400.785 331.376V326.816C399.985 328.544 398.849 329.904 397.377 330.896C395.905 331.856 394.177 332.336 392.193 332.336C390.241 332.336 388.481 331.824 386.913 330.8C385.377 329.776 384.177 328.336 383.313 326.48C382.449 324.592 382.017 322.384 382.017 319.856C382.017 317.36 382.465 315.184 383.361 313.328C384.289 311.44 385.521 310 387.057 309.008C388.593 307.984 390.289 307.472 392.145 307.472C394.097 307.472 395.809 307.968 397.281 308.96C398.785 309.92 399.953 311.28 400.785 313.04V307.808H404.913V331.088C404.913 334.608 403.953 337.296 402.033 339.152C400.145 341.008 397.553 341.936 394.257 341.936ZM386.289 319.856C386.289 322.672 386.929 324.912 388.209 326.576C389.489 328.24 391.185 329.072 393.297 329.072C394.737 329.072 396.017 328.688 397.137 327.92C398.289 327.152 399.169 326.08 399.777 324.704C400.417 323.328 400.737 321.76 400.737 320C400.737 318.24 400.401 316.656 399.729 315.248C399.089 313.84 398.209 312.736 397.089 311.936C395.969 311.136 394.737 310.736 393.393 310.736C391.281 310.736 389.569 311.568 388.257 313.232C386.945 314.864 386.289 317.072 386.289 319.856Z" fill="black" fill-opacity="0.01"/>
<rect width="311" height="131" transform="translate(776 241)" fill="white" fill-opacity="0.01"/>
<rect width="249" height="62" transform="translate(816 281)" fill="#FFFF00" fill-opacity="0.01"/>
<path d="M834.541 328C832.397 328 830.717 327.424 829.501 326.272C828.317 325.088 827.725 323.44 827.725 321.328V307.168H824.701V303.808H827.725V298.96L831.805 297.184V303.808H837.565V307.168H831.805V321.184C831.805 322.24 832.077 323.072 832.621 323.68C833.165 324.256 833.917 324.544 834.877 324.544H837.565V328H834.541ZM840.824 334.144H843.032C844.312 334.144 845.24 333.856 845.816 333.28C846.424 332.736 846.984 331.792 847.496 330.448L848.312 328.288L838.52 303.808H842.456L850.184 323.152L857.288 303.808H861.08L851.336 330.304C850.664 332.16 850.008 333.584 849.368 334.576C848.728 335.6 847.912 336.352 846.92 336.832C845.96 337.344 844.68 337.6 843.08 337.6H840.824V334.144ZM864.088 303.808H868.168V308.896C868.968 307.2 870.088 305.872 871.528 304.912C873 303.952 874.728 303.472 876.712 303.472C878.664 303.472 880.408 303.984 881.944 305.008C883.512 306.032 884.728 307.488 885.592 309.376C886.456 311.232 886.888 313.424 886.888 315.952C886.888 318.448 886.424 320.64 885.496 322.528C884.6 324.384 883.384 325.824 881.848 326.848C880.312 327.84 878.616 328.336 876.76 328.336C874.84 328.336 873.128 327.872 871.624 326.944C870.152 325.984 869 324.624 868.168 322.864V337.6H864.088V303.808ZM868.168 315.808C868.168 317.568 868.488 319.152 869.128 320.56C869.8 321.968 870.696 323.072 871.816 323.872C872.936 324.672 874.168 325.072 875.512 325.072C877.624 325.072 879.336 324.256 880.648 322.624C881.96 320.96 882.616 318.736 882.616 315.952C882.616 313.136 881.976 310.896 880.696 309.232C879.416 307.568 877.72 306.736 875.608 306.736C874.168 306.736 872.872 307.12 871.72 307.888C870.6 308.656 869.72 309.728 869.08 311.104C868.472 312.48 868.168 314.048 868.168 315.808ZM901.681 328.288C899.473 328.288 897.473 327.776 895.681 326.752C893.889 325.728 892.481 324.288 891.457 322.432C890.433 320.544 889.921 318.368 889.921 315.904C889.921 313.44 890.433 311.264 891.457 309.376C892.481 307.488 893.889 306.032 895.681 305.008C897.473 303.984 899.473 303.472 901.681 303.472C903.889 303.472 905.889 303.984 907.681 305.008C909.473 306.032 910.881 307.488 911.905 309.376C912.929 311.264 913.441 313.44 913.441 315.904C913.441 318.368 912.929 320.544 911.905 322.432C910.881 324.288 909.473 325.728 907.681 326.752C905.889 327.776 903.889 328.288 901.681 328.288ZM894.241 315.904C894.241 318.784 894.913 321.024 896.257 322.624C897.633 324.224 899.441 325.024 901.681 325.024C903.953 325.024 905.761 324.224 907.105 322.624C908.481 321.024 909.169 318.784 909.169 315.904C909.169 313.024 908.481 310.784 907.105 309.184C905.761 307.584 903.953 306.784 901.681 306.784C899.441 306.784 897.633 307.584 896.257 309.184C894.913 310.784 894.241 313.024 894.241 315.904ZM928.601 337.936C925.689 337.936 923.257 337.264 921.305 335.92C919.385 334.608 918.121 332.768 917.513 330.4L921.209 329.488C922.265 332.912 924.713 334.624 928.553 334.624C930.537 334.624 932.121 334 933.305 332.752C934.521 331.504 935.129 329.712 935.129 327.376V322.816C934.329 324.544 933.193 325.904 931.721 326.896C930.249 327.856 928.521 328.336 926.537 328.336C924.585 328.336 922.825 327.824 921.257 326.8C919.721 325.776 918.521 324.336 917.657 322.48C916.793 320.592 916.361 318.384 916.361 315.856C916.361 313.36 916.809 311.184 917.705 309.328C918.633 307.44 919.865 306 921.401 305.008C922.937 303.984 924.633 303.472 926.489 303.472C928.441 303.472 930.153 303.968 931.625 304.96C933.129 305.92 934.297 307.28 935.129 309.04V303.808H939.257V327.088C939.257 330.608 938.297 333.296 936.377 335.152C934.489 337.008 931.897 337.936 928.601 337.936ZM920.633 315.856C920.633 318.672 921.273 320.912 922.553 322.576C923.833 324.24 925.529 325.072 927.641 325.072C929.081 325.072 930.361 324.688 931.481 323.92C932.633 323.152 933.513 322.08 934.121 320.704C934.761 319.328 935.081 317.76 935.081 316C935.081 314.24 934.745 312.656 934.073 311.248C933.433 309.84 932.553 308.736 931.433 307.936C930.313 307.136 929.081 306.736 927.737 306.736C925.625 306.736 923.913 307.568 922.601 309.232C921.289 310.864 920.633 313.072 920.633 315.856ZM945.416 303.808H949.544V310.336C950.312 308.224 951.368 306.56 952.712 305.344C954.088 304.096 955.736 303.472 957.656 303.472H957.752V307.744C955.16 307.744 953.144 308.528 951.704 310.096C950.264 311.632 949.544 313.968 949.544 317.104V328H945.416V303.808ZM975.051 311.92C975.051 310.288 974.603 309.024 973.707 308.128C972.811 307.232 971.483 306.784 969.723 306.784C968.123 306.784 966.779 307.168 965.691 307.936C964.603 308.704 963.803 309.792 963.291 311.2L959.547 310.24C960.187 308.256 961.419 306.64 963.243 305.392C965.067 304.112 967.307 303.472 969.963 303.472C972.907 303.472 975.179 304.208 976.779 305.68C978.379 307.152 979.179 309.248 979.179 311.968V328H975.051V323.44C974.155 324.976 972.907 326.176 971.307 327.04C969.707 327.904 967.995 328.336 966.171 328.336C964.027 328.336 962.235 327.776 960.795 326.656C959.387 325.536 958.683 323.984 958.683 322C958.683 319.632 959.531 317.888 961.227 316.768C962.955 315.648 965.403 314.96 968.571 314.704C970.715 314.512 972.283 314.272 973.275 313.984C974.299 313.664 974.891 313.136 975.051 312.4V311.92ZM963.051 321.472C963.051 322.752 963.499 323.712 964.395 324.352C965.323 324.992 966.459 325.312 967.803 325.312C969.627 325.312 971.243 324.704 972.651 323.488C974.059 322.24 974.859 320.528 975.051 318.352V315.424C974.059 316.544 972.267 317.232 969.675 317.488C967.371 317.68 965.691 318.048 964.635 318.592C963.579 319.104 963.051 320.064 963.051 321.472ZM984.838 303.808H988.918V308.896C989.718 307.2 990.838 305.872 992.278 304.912C993.75 303.952 995.478 303.472 997.462 303.472C999.414 303.472 1001.16 303.984 1002.69 305.008C1004.26 306.032 1005.48 307.488 1006.34 309.376C1007.21 311.232 1007.64 313.424 1007.64 315.952C1007.64 318.448 1007.17 320.64 1006.25 322.528C1005.35 324.384 1004.13 325.824 1002.6 326.848C1001.06 327.84 999.366 328.336 997.51 328.336C995.59 328.336 993.878 327.872 992.374 326.944C990.902 325.984 989.75 324.624 988.918 322.864V337.6H984.838V303.808ZM988.918 315.808C988.918 317.568 989.238 319.152 989.878 320.56C990.55 321.968 991.446 323.072 992.566 323.872C993.686 324.672 994.918 325.072 996.262 325.072C998.374 325.072 1000.09 324.256 1001.4 322.624C1002.71 320.96 1003.37 318.736 1003.37 315.952C1003.37 313.136 1002.73 310.896 1001.45 309.232C1000.17 307.568 998.47 306.736 996.358 306.736C994.918 306.736 993.622 307.12 992.47 307.888C991.35 308.656 990.47 309.728 989.83 311.104C989.222 312.48 988.918 314.048 988.918 315.808ZM1011.98 294.4H1016.11V309.232C1017.1 307.504 1018.38 306.112 1019.95 305.056C1021.51 304 1023.27 303.472 1025.23 303.472C1027.4 303.472 1029.05 304.192 1030.17 305.632C1031.32 307.04 1031.9 309.136 1031.9 311.92V328H1027.82V312.448C1027.82 310.432 1027.43 309.008 1026.67 308.176C1025.93 307.312 1024.84 306.88 1023.4 306.88C1021.64 306.88 1020.09 307.6 1018.75 309.04C1017.4 310.448 1016.52 312.16 1016.11 314.176V328H1011.98V294.4ZM1036.53 334.144H1038.74C1040.02 334.144 1040.94 333.856 1041.52 333.28C1042.13 332.736 1042.69 331.792 1043.2 330.448L1044.02 328.288L1034.22 303.808H1038.16L1045.89 323.152L1052.99 303.808H1056.78L1047.04 330.304C1046.37 332.16 1045.71 333.584 1045.07 334.576C1044.43 335.6 1043.62 336.352 1042.62 336.832C1041.66 337.344 1040.38 337.6 1038.78 337.6H1036.53V334.144Z" fill="black" fill-opacity="0.01"/>
<rect width="374" height="131" transform="translate(951 32)" fill="white" fill-opacity="0.01"/>
<rect width="329" height="62" transform="translate(991 72)" fill="#FFFF00" fill-opacity="0.01"/>
<path d="M1012.63 119.336C1010.33 119.336 1008.28 118.84 1006.49 117.848C1004.73 116.824 1003.35 115.368 1002.36 113.48C1001.37 111.592 1000.87 109.4 1000.87 106.904C1000.87 104.6 1001.34 102.504 1002.27 100.616C1003.23 98.728 1004.59 97.24 1006.35 96.152C1008.11 95.032 1010.15 94.472 1012.49 94.472C1014.63 94.472 1016.51 94.952 1018.11 95.912C1019.74 96.872 1021 98.2 1021.9 99.896C1022.79 101.56 1023.24 103.432 1023.24 105.512C1023.24 106.152 1023.19 106.76 1023.1 107.336H1005.1C1005.19 110.12 1005.95 112.28 1007.35 113.816C1008.79 115.352 1010.6 116.12 1012.78 116.12C1015.95 116.12 1018.19 114.424 1019.5 111.032L1023.24 111.944C1022.57 114.056 1021.32 115.816 1019.5 117.224C1017.71 118.632 1015.42 119.336 1012.63 119.336ZM1019.07 104.264C1018.91 102.344 1018.22 100.776 1017 99.56C1015.82 98.312 1014.28 97.688 1012.39 97.688C1010.54 97.688 1008.99 98.28 1007.74 99.464C1006.49 100.648 1005.69 102.248 1005.34 104.264H1019.07ZM1044.91 113.816C1044.11 115.544 1042.97 116.904 1041.5 117.896C1040.03 118.856 1038.3 119.336 1036.32 119.336C1034.36 119.336 1032.6 118.824 1031.04 117.8C1029.5 116.776 1028.3 115.336 1027.44 113.48C1026.57 111.592 1026.14 109.384 1026.14 106.856C1026.14 104.36 1026.59 102.184 1027.48 100.328C1028.41 98.44 1029.64 97 1031.18 96.008C1032.72 94.984 1034.41 94.472 1036.27 94.472C1038.22 94.472 1039.93 94.968 1041.4 95.96C1042.91 96.92 1044.08 98.28 1044.91 100.04V85.4H1049.04V119H1044.91V113.816ZM1030.41 106.856C1030.41 109.672 1031.05 111.912 1032.33 113.576C1033.61 115.24 1035.31 116.072 1037.42 116.072C1038.86 116.072 1040.14 115.688 1041.26 114.92C1042.41 114.152 1043.29 113.08 1043.9 111.704C1044.54 110.328 1044.86 108.76 1044.86 107C1044.86 105.24 1044.52 103.656 1043.85 102.248C1043.21 100.84 1042.33 99.736 1041.21 98.936C1040.09 98.136 1038.86 97.736 1037.52 97.736C1035.4 97.736 1033.69 98.568 1032.38 100.232C1031.07 101.864 1030.41 104.072 1030.41 106.856ZM1055.2 94.808H1059.28V119H1055.2V94.808ZM1055.1 86.6H1059.42V91.448H1055.1V86.6ZM1072.76 119C1070.62 119 1068.94 118.424 1067.72 117.272C1066.54 116.088 1065.94 114.44 1065.94 112.328V98.168H1062.92V94.808H1065.94V89.96L1070.02 88.184V94.808H1075.78V98.168H1070.02V112.184C1070.02 113.24 1070.3 114.072 1070.84 114.68C1071.38 115.256 1072.14 115.544 1073.1 115.544H1075.78V119H1072.76ZM1088.9 119.288C1086.69 119.288 1084.69 118.776 1082.9 117.752C1081.11 116.728 1079.7 115.288 1078.68 113.432C1077.65 111.544 1077.14 109.368 1077.14 106.904C1077.14 104.44 1077.65 102.264 1078.68 100.376C1079.7 98.488 1081.11 97.032 1082.9 96.008C1084.69 94.984 1086.69 94.472 1088.9 94.472C1091.11 94.472 1093.11 94.984 1094.9 96.008C1096.69 97.032 1098.1 98.488 1099.12 100.376C1100.15 102.264 1100.66 104.44 1100.66 106.904C1100.66 109.368 1100.15 111.544 1099.12 113.432C1098.1 115.288 1096.69 116.728 1094.9 117.752C1093.11 118.776 1091.11 119.288 1088.9 119.288ZM1081.46 106.904C1081.46 109.784 1082.13 112.024 1083.48 113.624C1084.85 115.224 1086.66 116.024 1088.9 116.024C1091.17 116.024 1092.98 115.224 1094.32 113.624C1095.7 112.024 1096.39 109.784 1096.39 106.904C1096.39 104.024 1095.7 101.784 1094.32 100.184C1092.98 98.584 1091.17 97.784 1088.9 97.784C1086.66 97.784 1084.85 98.584 1083.48 100.184C1082.13 101.784 1081.46 104.024 1081.46 106.904ZM1104.98 94.808H1109.11V101.336C1109.87 99.224 1110.93 97.56 1112.27 96.344C1113.65 95.096 1115.3 94.472 1117.22 94.472H1117.31V98.744C1114.72 98.744 1112.71 99.528 1111.27 101.096C1109.83 102.632 1109.11 104.968 1109.11 108.104V119H1104.98V94.808ZM1120.49 94.808H1124.57V119H1120.49V94.808ZM1120.4 86.6H1124.72V91.448H1120.4V86.6ZM1145.07 102.92C1145.07 101.288 1144.62 100.024 1143.72 99.128C1142.83 98.232 1141.5 97.784 1139.74 97.784C1138.14 97.784 1136.79 98.168 1135.71 98.936C1134.62 99.704 1133.82 100.792 1133.31 102.2L1129.56 101.24C1130.2 99.256 1131.43 97.64 1133.26 96.392C1135.08 95.112 1137.32 94.472 1139.98 94.472C1142.92 94.472 1145.19 95.208 1146.79 96.68C1148.39 98.152 1149.19 100.248 1149.19 102.968V119H1145.07V114.44C1144.17 115.976 1142.92 117.176 1141.32 118.04C1139.72 118.904 1138.01 119.336 1136.19 119.336C1134.04 119.336 1132.25 118.776 1130.81 117.656C1129.4 116.536 1128.7 114.984 1128.7 113C1128.7 110.632 1129.55 108.888 1131.24 107.768C1132.97 106.648 1135.42 105.96 1138.59 105.704C1140.73 105.512 1142.3 105.272 1143.29 104.984C1144.31 104.664 1144.91 104.136 1145.07 103.4V102.92ZM1133.07 112.472C1133.07 113.752 1133.51 114.712 1134.41 115.352C1135.34 115.992 1136.47 116.312 1137.82 116.312C1139.64 116.312 1141.26 115.704 1142.67 114.488C1144.07 113.24 1144.87 111.528 1145.07 109.352V106.424C1144.07 107.544 1142.28 108.232 1139.69 108.488C1137.39 108.68 1135.71 109.048 1134.65 109.592C1133.59 110.104 1133.07 111.064 1133.07 112.472ZM1154.81 85.4H1158.93V119H1154.81V85.4ZM1194.25 113.816C1193.45 115.544 1192.32 116.904 1190.84 117.896C1189.37 118.856 1187.64 119.336 1185.66 119.336C1183.71 119.336 1181.95 118.824 1180.38 117.8C1178.84 116.776 1177.64 115.336 1176.78 113.48C1175.92 111.592 1175.48 109.384 1175.48 106.856C1175.48 104.36 1175.93 102.184 1176.83 100.328C1177.76 98.44 1178.99 97 1180.52 96.008C1182.06 94.984 1183.76 94.472 1185.61 94.472C1187.56 94.472 1189.28 94.968 1190.75 95.96C1192.25 96.92 1193.42 98.28 1194.25 100.04V85.4H1198.38V119H1194.25V113.816ZM1179.76 106.856C1179.76 109.672 1180.4 111.912 1181.68 113.576C1182.96 115.24 1184.65 116.072 1186.76 116.072C1188.2 116.072 1189.48 115.688 1190.6 114.92C1191.76 114.152 1192.64 113.08 1193.24 111.704C1193.88 110.328 1194.2 108.76 1194.2 107C1194.2 105.24 1193.87 103.656 1193.2 102.248C1192.56 100.84 1191.68 99.736 1190.56 98.936C1189.44 98.136 1188.2 97.736 1186.86 97.736C1184.75 97.736 1183.04 98.568 1181.72 100.232C1180.41 101.864 1179.76 104.072 1179.76 106.856ZM1214.43 119.336C1212.13 119.336 1210.08 118.84 1208.29 117.848C1206.53 116.824 1205.15 115.368 1204.16 113.48C1203.17 111.592 1202.67 109.4 1202.67 106.904C1202.67 104.6 1203.14 102.504 1204.06 100.616C1205.02 98.728 1206.38 97.24 1208.14 96.152C1209.9 95.032 1211.95 94.472 1214.29 94.472C1216.43 94.472 1218.3 94.952 1219.9 95.912C1221.54 96.872 1222.8 98.2 1223.7 99.896C1224.59 101.56 1225.04 103.432 1225.04 105.512C1225.04 106.152 1224.99 106.76 1224.9 107.336H1206.9C1206.99 110.12 1207.74 112.28 1209.15 113.816C1210.59 115.352 1212.4 116.12 1214.58 116.12C1217.74 116.12 1219.98 114.424 1221.3 111.032L1225.04 111.944C1224.37 114.056 1223.12 115.816 1221.3 117.224C1219.5 118.632 1217.22 119.336 1214.43 119.336ZM1220.86 104.264C1220.7 102.344 1220.02 100.776 1218.8 99.56C1217.62 98.312 1216.08 97.688 1214.19 97.688C1212.34 97.688 1210.78 98.28 1209.54 99.464C1208.29 100.648 1207.49 102.248 1207.14 104.264H1220.86ZM1238.21 119.336C1235.27 119.336 1232.9 118.664 1231.11 117.32C1229.31 115.976 1228.11 114.248 1227.51 112.136L1231.3 111.176C1232.39 114.536 1234.72 116.216 1238.31 116.216C1239.97 116.216 1241.27 115.864 1242.19 115.16C1243.12 114.456 1243.59 113.496 1243.59 112.28C1243.59 111.256 1243.22 110.456 1242.48 109.88C1241.75 109.304 1240.63 108.824 1239.12 108.44L1235.23 107.48C1232.93 106.936 1231.2 106.216 1230.05 105.32C1228.93 104.392 1228.37 103.048 1228.37 101.288C1228.37 99.24 1229.17 97.592 1230.77 96.344C1232.37 95.096 1234.48 94.472 1237.11 94.472C1239.76 94.472 1241.94 95.048 1243.63 96.2C1245.33 97.352 1246.5 98.904 1247.14 100.856L1243.3 101.768C1242.85 100.488 1242.1 99.48 1241.04 98.744C1240.02 97.976 1238.67 97.592 1237.01 97.592C1235.54 97.592 1234.35 97.912 1233.46 98.552C1232.56 99.16 1232.11 100.008 1232.11 101.096C1232.11 102.056 1232.45 102.792 1233.12 103.304C1233.79 103.816 1234.77 104.216 1236.05 104.504L1240.47 105.56C1242.77 106.072 1244.48 106.856 1245.6 107.912C1246.75 108.936 1247.33 110.328 1247.33 112.088C1247.33 114.264 1246.53 116.024 1244.93 117.368C1243.33 118.68 1241.09 119.336 1238.21 119.336ZM1251.6 94.808H1255.68V119H1251.6V94.808ZM1251.51 86.6H1255.83V91.448H1251.51V86.6ZM1272.34 128.936C1269.42 128.936 1266.99 128.264 1265.04 126.92C1263.12 125.608 1261.86 123.768 1261.25 121.4L1264.94 120.488C1266 123.912 1268.45 125.624 1272.29 125.624C1274.27 125.624 1275.86 125 1277.04 123.752C1278.26 122.504 1278.86 120.712 1278.86 118.376V113.816C1278.06 115.544 1276.93 116.904 1275.46 117.896C1273.98 118.856 1272.26 119.336 1270.27 119.336C1268.32 119.336 1266.56 118.824 1264.99 117.8C1263.46 116.776 1262.26 115.336 1261.39 113.48C1260.53 111.592 1260.1 109.384 1260.1 106.856C1260.1 104.36 1260.54 102.184 1261.44 100.328C1262.37 98.44 1263.6 97 1265.14 96.008C1266.67 94.984 1268.37 94.472 1270.22 94.472C1272.18 94.472 1273.89 94.968 1275.36 95.96C1276.86 96.92 1278.03 98.28 1278.86 100.04V94.808H1282.99V118.088C1282.99 121.608 1282.03 124.296 1280.11 126.152C1278.22 128.008 1275.63 128.936 1272.34 128.936ZM1264.37 106.856C1264.37 109.672 1265.01 111.912 1266.29 113.576C1267.57 115.24 1269.26 116.072 1271.38 116.072C1272.82 116.072 1274.1 115.688 1275.22 114.92C1276.37 114.152 1277.25 113.08 1277.86 111.704C1278.5 110.328 1278.82 108.76 1278.82 107C1278.82 105.24 1278.48 103.656 1277.81 102.248C1277.17 100.84 1276.29 99.736 1275.17 98.936C1274.05 98.136 1272.82 97.736 1271.47 97.736C1269.36 97.736 1267.65 98.568 1266.34 100.232C1265.02 101.864 1264.37 104.072 1264.37 106.856ZM1289.15 94.808H1293.23V100.232C1294.22 98.504 1295.5 97.112 1297.07 96.056C1298.64 95 1300.4 94.472 1302.35 94.472C1304.53 94.472 1306.17 95.192 1307.29 96.632C1308.45 98.04 1309.02 100.136 1309.02 102.92V119H1304.94V103.448C1304.94 101.432 1304.56 100.008 1303.79 99.176C1303.05 98.312 1301.97 97.88 1300.53 97.88C1298.77 97.88 1297.21 98.6 1295.87 100.04C1294.53 101.448 1293.65 103.16 1293.23 105.176V119H1289.15V94.808Z" fill="black" fill-opacity="0.01"/>
</g>
<defs>
<clipPath id="clip0_318_150">
<rect width="1416" height="413" fill="white"/>
</clipPath>
</defs>
</svg>
